<?xml version="1.0" encoding="UTF-8" standalone="no"?><!DOCTYPE svg PUBLIC "-//W3C//DTD SVG 1.1//EN" "http://www.w3.org/Graphics/SVG/1.1/DTD/svg11.dtd"><svg width="100%" height="100%" viewBox="0 0 8492 5859" version="1.1" xmlns="http://www.w3.org/2000/svg" xmlns:xlink="http://www.w3.org/1999/xlink" xml:space="preserve" xmlns:serif="http://www.serif.com/" style="fill-rule:evenodd;clip-rule:evenodd;stroke-linejoin:round;stroke-miterlimit:2;"><path d="M4822.42,1394.46c147.483,-147.83 238.7,-351.825 238.7,-577.155c-0,-451.387 -365.904,-817.308 -817.275,-817.308c-285.367,0 -536.25,146.458 -682.434,368.092c-38.8,38.921 -3292.29,4048.89 -3322.67,4094.95c-147.484,147.845 -238.717,351.841 -238.717,577.17c-0,451.371 365.921,817.292 817.292,817.292c285.345,0 536.233,-146.458 682.412,-368.075c38.821,-38.921 3292.31,-4048.89 3322.69,-4094.96Z" style="fill:#fff;fill-rule:nonzero;"/><path d="M6705,3297.17c147.829,-147.9 239.288,-352.188 239.288,-577.829c-0,-451.375 -365.9,-817.292 -817.292,-817.292c-285.484,0 -536.458,146.596 -682.604,368.4c-39.167,39.167 -1747.97,2145.5 -1778.56,2191.93c-147.862,147.9 -239.304,352.188 -239.304,577.829c0,451.371 365.921,817.292 817.292,817.292c285.467,0 536.441,-146.596 682.583,-368.404c39.171,-39.167 1747.99,-2145.5 1778.6,-2191.93Z" style="fill:#fff;fill-rule:nonzero;"/><path d="M8487.62,817.308c0,451.371 -365.9,817.275 -817.292,817.275c-451.37,0 -817.275,-365.904 -817.275,-817.275c0,-451.387 365.905,-817.291 817.275,-817.291c451.392,-0 817.292,365.904 817.292,817.291Z" style="fill:#fff;fill-rule:nonzero;"/><path d="M1634.58,817.308c0,451.371 -365.92,817.275 -817.291,817.275c-451.371,0 -817.292,-365.904 -817.292,-817.275c0,-451.387 365.921,-817.291 817.292,-817.291c451.371,-0 817.291,365.904 817.291,817.291Z" style="fill:#fff;fill-rule:nonzero;"/></svg>