<?xml version="1.0" encoding="UTF-8" standalone="no"?><!DOCTYPE svg PUBLIC "-//W3C//DTD SVG 1.1//EN" "http://www.w3.org/Graphics/SVG/1.1/DTD/svg11.dtd"><svg width="100%" height="100%" viewBox="0 0 2038 1406" version="1.1" xmlns="http://www.w3.org/2000/svg" xmlns:xlink="http://www.w3.org/1999/xlink" xml:space="preserve" xmlns:serif="http://www.serif.com/" style="fill-rule:evenodd;clip-rule:evenodd;stroke-linejoin:round;stroke-miterlimit:2;"><path d="M1157.38,334.671c35.396,-35.479 57.288,-84.438 57.288,-138.517c-0,-108.333 -87.817,-196.154 -196.146,-196.154c-68.488,0 -128.7,35.15 -163.784,88.342c-9.312,9.341 -790.15,971.733 -797.441,982.787c-35.396,35.483 -57.292,84.442 -57.292,138.521c-0,108.329 87.821,196.15 196.15,196.15c68.483,-0 128.696,-35.15 163.779,-88.338c9.317,-9.341 790.154,-971.733 797.446,-982.791Z" style="fill-rule:nonzero;"/><path d="M1609.2,791.321c35.479,-35.496 57.429,-84.525 57.429,-138.679c0,-108.33 -87.816,-196.15 -196.15,-196.15c-68.516,-0 -128.75,35.183 -163.825,88.416c-9.4,9.4 -419.512,514.921 -426.854,526.063c-35.487,35.496 -57.433,84.525 -57.433,138.679c-0,108.329 87.821,196.15 196.15,196.15c68.512,-0 128.746,-35.183 163.82,-88.417c9.401,-9.4 419.517,-514.92 426.863,-526.062Z" style="fill-rule:nonzero;"/><path d="M2037.03,196.154c0,108.329 -87.816,196.146 -196.15,196.146c-108.329,-0 -196.146,-87.817 -196.146,-196.146c0,-108.333 87.817,-196.15 196.146,-196.15c108.334,0 196.15,87.817 196.15,196.15Z" style="fill-rule:nonzero;"/><path d="M392.3,196.154c0,108.329 -87.821,196.146 -196.15,196.146c-108.329,-0 -196.15,-87.817 -196.15,-196.146c0,-108.333 87.821,-196.15 196.15,-196.15c108.329,0 196.15,87.817 196.15,196.15Z" style="fill-rule:nonzero;"/></svg>