<svg width="24" height="25" viewBox="0 0 24 25" fill="none" xmlns="http://www.w3.org/2000/svg">
<path d="M18 8.75C18 7.1587 17.3679 5.63258 16.2426 4.50736C15.1174 3.38214 13.5913 2.75 12 2.75C10.4087 2.75 8.88258 3.38214 7.75736 4.50736C6.63214 5.63258 6 7.1587 6 8.75C6 15.75 3 17.75 3 17.75H21C21 17.75 18 15.75 18 8.75Z" stroke="black" stroke-width="2" stroke-linecap="round" stroke-linejoin="round"/>
<path d="M13.73 21.75C13.5542 22.0531 13.3019 22.3047 12.9982 22.4795C12.6946 22.6544 12.3504 22.7465 12 22.7465C11.6496 22.7465 11.3054 22.6544 11.0018 22.4795C10.6982 22.3047 10.4458 22.0531 10.27 21.75" stroke="black" stroke-width="2" stroke-linecap="round" stroke-linejoin="round"/>
</svg>
